<svg width="40" height="41" viewBox="0 0 40 41" fill="none" xmlns="http://www.w3.org/2000/svg">
<path d="M17.4681 4.42518C17.6321 4.42367 17.6321 4.42367 17.7994 4.42212C19.2693 4.42852 19.2693 4.42852 19.8351 4.88115C20.0679 5.34683 20.0958 5.7655 19.996 6.27589C19.761 6.57889 19.5851 6.74957 19.245 6.91961C19.0874 6.92613 18.9295 6.92607 18.7719 6.92254C18.6754 6.92106 18.579 6.91957 18.4796 6.91804C18.3759 6.91634 18.2722 6.91465 18.1654 6.9129C14.7928 6.88988 11.8503 7.77523 9.3746 10.1382C9.31001 10.1948 9.24543 10.2514 9.17888 10.3096C7.64311 11.7094 6.70727 13.9003 6.47785 15.9317C6.46601 16.2873 6.46763 16.6422 6.47114 16.9979C6.47163 17.0917 6.47211 17.1856 6.47261 17.2822C6.47386 17.5116 6.47579 17.7409 6.47785 17.9702C6.57203 17.953 6.66621 17.9359 6.76325 17.9182C9.14795 17.5501 11.3391 18.5476 13.2302 19.9148C14.7616 21.0922 16.1327 22.5605 17.2789 24.1115C17.558 24.4816 17.8524 24.8395 18.1453 25.1987C18.2052 25.2721 18.265 25.3455 18.3267 25.4212C18.7303 25.9148 19.133 26.4074 19.5669 26.875C19.6791 26.9976 19.6791 26.9976 19.7936 27.1227C21.4006 28.8086 23.4386 30.0155 25.6822 30.6301C25.801 30.6642 25.9198 30.6984 26.0422 30.7336C27.9853 31.21 30.0655 31.0576 31.9909 30.5807C32.3897 30.4828 32.7912 30.3962 33.1923 30.3082C31.8985 33.7523 28.5971 36.4136 25.3604 37.9256C21.3304 39.7132 16.8147 39.62 12.7248 38.1004C9.59637 36.8368 6.9891 34.5365 5.1904 31.7029C5.14969 31.6404 5.10898 31.5779 5.06703 31.5135C3.27476 28.7347 2.76858 25.5055 2.83008 22.2617C3.17867 22.5877 3.37764 22.9718 3.60121 23.3882C4.64303 25.2804 6.08158 27.1205 7.76529 28.4843C7.86418 28.5658 7.96306 28.6472 8.06494 28.7312C9.60212 29.9717 11.8539 31.544 13.9075 31.5085C13.9965 31.5078 14.0856 31.5071 14.1774 31.5064C14.4355 31.4968 14.4355 31.4968 14.739 31.3811C15.0289 30.9027 14.9564 30.5118 14.8462 29.9863C14.5802 29.5872 14.1374 29.5404 13.6996 29.4298C11.5815 28.847 9.86731 27.6367 8.30173 26.124C8.21681 26.0446 8.1319 25.9652 8.04441 25.8834C5.52366 23.4688 3.98925 20.2799 3.90296 16.79C3.95725 13.8592 5.02867 11.2897 6.907 9.06535C6.97836 8.97822 7.04972 8.89109 7.12325 8.80133C9.20987 6.35147 12.5071 4.84221 15.6756 4.48176C16.2722 4.43585 16.87 4.42939 17.4681 4.42518Z" fill="#6ADBD9"/>
<path opacity="0.5" d="M28.6259 2.46062C28.7032 2.45826 28.7805 2.45591 28.8602 2.45349C29.6816 2.67066 30.095 3.51562 30.5168 4.18392C30.5869 4.29322 30.6569 4.40253 30.729 4.51515C30.9435 4.85097 31.1562 5.18782 31.3684 5.525C31.4622 5.67318 31.4622 5.67318 31.558 5.82434C32.9274 7.99039 34.1805 10.2125 35.3381 12.4987C35.3801 12.5811 35.4222 12.6635 35.4655 12.7483C36.3355 14.4651 37.2114 16.4642 37.1955 18.4196C37.1947 18.5371 37.1947 18.5371 37.1939 18.6571C37.1461 20.9105 36.1292 23.0168 34.5301 24.5814C32.7989 26.2073 30.6219 26.9229 28.2672 26.8974C26.4526 26.8268 24.7341 26.1988 23.3219 25.0513C23.233 24.9798 23.144 24.9083 23.0524 24.8346C21.36 23.3961 20.3755 21.4499 20.1033 19.2578C19.7397 14.1203 23.9188 8.50229 26.5941 4.44431C26.6783 4.31668 26.7621 4.18888 26.8457 4.0609C26.9625 3.88253 27.0807 3.70505 27.1989 3.52762C27.2661 3.42626 27.3332 3.32491 27.4024 3.22048C27.7374 2.79109 28.0612 2.45961 28.6259 2.46062Z" fill="#3ACBC6" fill-opacity="0.6"/>
</svg>
