<svg width="40" height="41" viewBox="0 0 40 41" fill="none" xmlns="http://www.w3.org/2000/svg">
<path d="M19.9804 2.71387C20.039 2.71402 20.0977 2.71416 20.1581 2.7143C21.0136 2.7178 21.825 2.75347 22.6562 2.97266C22.7596 2.99679 22.8631 3.02089 22.9665 3.04499C24.8172 3.50641 26.4077 4.52617 27.8124 5.78516C27.8741 5.84025 27.9359 5.89534 27.9995 5.95209C28.8614 6.76739 29.5341 7.78426 30.078 8.83204C30.1253 8.92147 30.1725 9.01089 30.2212 9.10303C30.5051 9.66188 30.7093 10.2321 30.8837 10.834C30.9026 10.8992 30.9216 10.9643 30.9411 11.0315C31.2359 12.103 31.2743 13.1477 31.2734 14.2507C31.2737 14.4037 31.2741 14.5568 31.2744 14.7098C31.275 15.0291 31.275 15.3485 31.2746 15.6679C31.2741 16.0735 31.2754 16.4791 31.2773 16.8847C31.2784 17.2004 31.2785 17.5161 31.2782 17.8318C31.2783 17.9812 31.2787 18.1305 31.2795 18.2799C31.2936 21.2969 30.2366 24.0856 28.1179 26.2606C28.0422 26.3366 27.9665 26.4125 27.8905 26.4883C27.8244 26.5554 27.7582 26.6224 27.69 26.6915C25.6308 28.6722 22.8429 29.6519 20.0194 29.6377C19.9315 29.6375 19.9315 29.6375 19.8417 29.6373C18.9863 29.6338 18.1748 29.5981 17.3437 29.3789C17.2402 29.3548 17.1368 29.3307 17.0333 29.3066C14.3102 28.6283 11.8495 26.7464 10.3936 24.3624C9.85386 23.4527 9.41085 22.5347 9.11612 21.5176C9.09718 21.4524 9.07823 21.3873 9.05871 21.3201C8.76393 20.2486 8.72549 19.2039 8.72641 18.1008C8.72611 17.9478 8.72577 17.7948 8.7254 17.6418C8.72482 17.3224 8.72484 17.0031 8.72525 16.6837C8.7257 16.2781 8.72438 15.8725 8.72257 15.4669C8.7214 15.1512 8.72135 14.8355 8.72159 14.5198C8.72155 14.3704 8.72115 14.2211 8.72035 14.0717C8.70617 11.0372 9.77665 8.42981 11.7968 6.17579C11.8519 6.11405 11.907 6.05232 11.9637 5.98871C12.779 5.12682 13.7959 4.45411 14.8437 3.91016C14.9778 3.83931 14.9778 3.83931 15.1147 3.76703C15.6735 3.48305 16.2438 3.27889 16.8456 3.1045C16.9108 3.08555 16.9759 3.06661 17.0431 3.04709C18.0164 2.77932 18.9762 2.70881 19.9804 2.71387ZM19.0641 7.84374C19.0183 7.94164 18.9738 8.04008 18.9303 8.13898C18.9058 8.19144 18.8814 8.24391 18.8563 8.29796C18.779 8.4641 18.7033 8.63087 18.6278 8.79786C18.5521 8.96509 18.476 9.1321 18.3986 9.29859C18.3507 9.40171 18.3036 9.50526 18.2577 9.60927C18.1082 9.93118 17.9635 10.1352 17.6562 10.3164C17.4053 10.3553 17.4053 10.3553 17.1245 10.3558C17.0225 10.3572 16.9205 10.3587 16.8154 10.3602C16.7083 10.3604 16.6012 10.3604 16.4941 10.3604C15.5934 10.3335 15.5934 10.3335 14.7655 10.6289C14.5267 10.8861 14.4306 11.0995 14.4042 11.4443C14.4234 11.7646 14.5181 11.9606 14.746 12.1951C15.0286 12.4404 15.323 12.671 15.6228 12.895C15.9977 13.1778 16.2871 13.4014 16.3874 13.8823C16.4267 14.2509 16.336 14.5341 16.2087 14.877C16.1878 14.937 16.1669 14.9971 16.1453 15.059C16.0789 15.2494 16.0108 15.4392 15.9423 15.6289C15.8742 15.8187 15.8066 16.0085 15.7401 16.1989C15.6989 16.3168 15.6568 16.4344 15.6136 16.5516C15.4786 16.9365 15.4411 17.2518 15.4687 17.6602C15.5565 17.8406 15.5565 17.8406 15.6933 17.9678C15.735 18.012 15.7767 18.0562 15.8196 18.1018C16.0049 18.2673 16.0931 18.2851 16.3476 18.3032C16.6626 18.2838 16.8318 18.2214 17.1093 18.0752C17.1541 18.0521 17.1989 18.029 17.245 18.0051C17.562 17.8386 17.8711 17.6594 18.1801 17.4786C18.2587 17.433 18.3374 17.3874 18.4183 17.3404C18.5749 17.2491 18.7308 17.1567 18.8859 17.063C19.3243 16.8067 19.7148 16.5986 20.2343 16.6445C20.4461 16.7154 20.601 16.781 20.7909 16.8887C20.868 16.9293 20.868 16.9293 20.9466 16.9708C21.2836 17.151 21.613 17.3442 21.9427 17.5375C22.0219 17.5835 22.1011 17.6295 22.1828 17.6769C22.3396 17.7684 22.4956 17.8613 22.6507 17.9556C23.0924 18.215 23.3914 18.3654 23.9062 18.2852C24.0866 18.1973 24.0866 18.1973 24.2138 18.0606C24.258 18.0189 24.3022 17.9772 24.3478 17.9342C24.5515 17.7063 24.5509 17.5083 24.5467 17.2081C24.5209 16.9209 24.4256 16.6686 24.3233 16.4007C24.2802 16.2813 24.2372 16.162 24.1941 16.0426C24.126 15.8575 24.0574 15.6725 23.9883 15.4877C23.9213 15.3075 23.8561 15.1266 23.7911 14.9456C23.7597 14.8643 23.7597 14.8643 23.7277 14.7813C23.5833 14.3761 23.5633 14.0172 23.6718 13.5977C23.9543 13.1697 24.3443 12.8957 24.7521 12.5933C25.2942 12.1867 25.2942 12.1867 25.5987 11.6006C25.5933 11.268 25.5843 11.0161 25.3759 10.7461C25.0033 10.4149 24.7029 10.3755 24.2113 10.3732C24.104 10.3716 23.9967 10.37 23.8894 10.3683C23.7217 10.3665 23.5541 10.3652 23.3864 10.3648C23.2235 10.364 23.0607 10.3614 22.8979 10.3585C22.8009 10.3579 22.704 10.3572 22.6041 10.3566C22.2886 10.3079 22.1719 10.2347 21.953 10.0039C21.848 9.82102 21.7596 9.64892 21.675 9.45734C21.625 9.34977 21.575 9.24219 21.525 9.13462C21.4483 8.96625 21.3719 8.79771 21.2957 8.62908C21.2213 8.46524 21.1455 8.30212 21.0696 8.13898C21.0476 8.089 21.0256 8.03902 21.0029 7.98753C20.8298 7.61696 20.6373 7.42603 20.3124 7.19141C20.1521 7.13164 20.1521 7.13164 19.9999 7.14258C19.9516 7.14158 19.9032 7.14057 19.8534 7.13953C19.4811 7.25589 19.2555 7.51975 19.0641 7.84374ZM12.2655 22.2695C12.3713 22.6479 12.5385 22.9417 12.7685 23.2559C12.8029 23.3032 12.8373 23.3506 12.8727 23.3994C14.3309 25.3693 16.398 26.6671 18.828 27.0352C21.1098 27.3286 23.4125 26.7201 25.2539 25.3445C26.2252 24.5897 27.2339 23.5682 27.7343 22.4258C27.7085 22.3742 27.6827 22.3227 27.6562 22.2695C27.6048 22.316 27.5534 22.3624 27.5005 22.4102C24.9373 24.6435 21.8592 25.3575 18.5299 25.1462C16.4661 24.9574 14.5153 23.9776 12.8905 22.7383C12.7636 22.6439 12.6366 22.5495 12.5097 22.4551C12.4291 22.3939 12.3485 22.3326 12.2655 22.2695Z" fill="#6ADBD9"/>
<path opacity="0.5" d="M8.12994 25.5508C8.56119 25.8444 8.85499 26.2636 9.16998 26.6739C10.2969 28.1357 11.6177 29.264 13.198 30.2035C14.2631 30.8398 14.2631 30.8398 14.4532 31.4102C14.5003 31.9657 14.3832 32.3538 14.0342 32.7947C13.9126 32.9275 13.787 33.0544 13.6584 33.1805C13.6108 33.2283 13.5633 33.2762 13.5143 33.3255C13.3584 33.4819 13.2015 33.6372 13.0445 33.7924C12.9353 33.9014 12.8261 34.0105 12.717 34.1196C12.489 34.3475 12.2604 34.5747 12.0314 34.8016C11.738 35.0924 11.4456 35.3842 11.1535 35.6764C10.9285 35.9014 10.7031 36.126 10.4775 36.3504C10.3695 36.4579 10.2616 36.5655 10.1538 36.6731C10.0033 36.8233 9.85231 36.9729 9.70114 37.1224C9.65673 37.1669 9.61232 37.2114 9.56657 37.2572C9.19519 37.6226 8.96764 37.761 8.44733 37.7676C8.04048 37.7597 7.8043 37.7148 7.50006 37.4258C7.17104 37.0079 7.0993 36.6707 7.10057 36.1492C7.10058 36.0272 7.10058 36.0272 7.10058 35.9028C7.10099 35.816 7.10139 35.7291 7.10181 35.6396C7.10192 35.55 7.10203 35.4604 7.10214 35.3681C7.10258 35.0823 7.10356 34.7965 7.10455 34.5108C7.10495 34.3168 7.1053 34.1229 7.10562 33.929C7.10648 33.454 7.10779 32.979 7.10944 32.5039C7.03544 32.5047 7.03544 32.5047 6.95994 32.5055C6.44409 32.5107 5.92824 32.5143 5.41237 32.5168C5.22013 32.518 5.0279 32.5196 4.83567 32.5216C4.55853 32.5245 4.28142 32.5258 4.00427 32.5268C3.91904 32.528 3.83381 32.5293 3.74599 32.5305C3.22146 32.5306 2.62948 32.5256 2.21724 32.1561C1.93729 31.8294 1.86062 31.6175 1.85065 31.1954C1.84773 31.1152 1.84481 31.035 1.8418 30.9524C1.9092 30.4553 2.2875 30.1151 2.63031 29.7729C2.67368 29.729 2.71704 29.6851 2.76172 29.6399C2.90409 29.496 3.04704 29.3528 3.19006 29.2096C3.28991 29.1092 3.38974 29.0089 3.48957 28.9085C3.69845 28.6987 3.90766 28.4892 4.11705 28.2799C4.38475 28.0122 4.65135 27.7435 4.91768 27.4744C5.12338 27.267 5.32978 27.0603 5.53639 26.8538C5.63498 26.755 5.73331 26.656 5.83137 26.5567C5.96876 26.4178 6.10711 26.2799 6.24573 26.1422C6.28565 26.1014 6.32556 26.0606 6.36668 26.0186C6.87353 25.5204 7.44037 25.3257 8.12994 25.5508Z" fill="#3ACBC6" fill-opacity="0.6"/>
<path opacity="0.5" d="M32.6076 25.4873C32.6931 25.4938 32.6931 25.4938 32.7803 25.5005C33.2407 25.6234 33.5773 25.9801 33.9044 26.3098C33.9484 26.3535 33.9924 26.3973 34.0377 26.4423C34.182 26.5859 34.3256 26.7299 34.4692 26.8741C34.5697 26.9745 34.6702 27.0749 34.7708 27.1753C34.9809 27.3851 35.1908 27.5953 35.4004 27.8057C35.6691 28.0752 35.9384 28.3441 36.208 28.6127C36.4155 28.8196 36.6226 29.027 36.8297 29.2344C36.9288 29.3337 37.0281 29.4329 37.1276 29.5319C37.2663 29.6703 37.4046 29.8091 37.5427 29.9481C37.6043 30.0092 37.6043 30.0092 37.6671 30.0716C38.0221 30.4307 38.1481 30.6618 38.1545 31.1661C38.1466 31.5729 38.1017 31.8091 37.8127 32.1133C37.3947 32.4423 37.0575 32.5141 36.536 32.5128C36.4547 32.5128 36.3734 32.5128 36.2897 32.5128C36.2028 32.5124 36.116 32.512 36.0265 32.5116C35.9369 32.5115 35.8473 32.5114 35.7549 32.5112C35.4692 32.5108 35.1834 32.5098 34.8976 32.5088C34.7037 32.5084 34.5098 32.5081 34.3158 32.5078C33.8408 32.5069 33.3658 32.5056 32.8908 32.5039C32.8916 32.5779 32.8916 32.5779 32.8924 32.6534C32.8976 33.1693 32.9011 33.6851 32.9037 34.201C32.9049 34.3932 32.9065 34.5855 32.9085 34.7777C32.9113 35.0549 32.9127 35.332 32.9137 35.6091C32.9149 35.6943 32.9161 35.7796 32.9174 35.8674C32.9175 36.3919 32.9125 36.9839 32.543 37.3961C32.2163 37.6761 32.0043 37.7528 31.5822 37.7627C31.5021 37.7657 31.4219 37.7686 31.3393 37.7716C30.8309 37.7027 30.4802 37.3043 30.131 36.9556C30.0841 36.9093 30.0372 36.8631 29.9888 36.8154C29.8348 36.6632 29.6814 36.5105 29.5281 36.3577C29.4207 36.251 29.3133 36.1444 29.206 36.0377C28.9814 35.8145 28.7572 35.5909 28.5332 35.3671C28.2468 35.0811 27.9591 34.7963 27.671 34.5119C27.449 34.2921 27.2278 34.0715 27.0069 33.8507C26.9012 33.7454 26.7953 33.6403 26.6889 33.5356C26.5401 33.3889 26.3925 33.241 26.2452 33.0927C26.1797 33.0289 26.1797 33.0289 26.1128 32.9638C25.7736 32.6182 25.5721 32.2528 25.5303 31.7587C25.583 31.3622 25.6648 31.0931 25.9377 30.7852C26.0311 30.72 26.127 30.6583 26.2245 30.5993C26.2801 30.5655 26.3356 30.5316 26.3929 30.4967C26.4489 30.463 26.5049 30.4293 26.5627 30.3946C28.404 29.2769 29.9873 27.9754 31.2387 26.2026C31.4869 25.8579 31.7003 25.6376 32.1126 25.4962C32.2846 25.4698 32.4343 25.4712 32.6076 25.4873Z" fill="#3ACBC6" fill-opacity="0.6"/>
</svg>
