<svg width="40" height="41" viewBox="0 0 40 41" fill="none" xmlns="http://www.w3.org/2000/svg">
<path d="M5.27775 28.3523C5.35146 28.3521 5.42517 28.3518 5.50111 28.3516C5.74734 28.3509 5.99357 28.3508 6.2398 28.3507C6.41667 28.3503 6.59355 28.3499 6.77042 28.3495C7.2505 28.3485 7.73057 28.348 8.21065 28.3476C8.51088 28.3474 8.81111 28.3471 9.11135 28.3467C9.94394 28.3458 10.7765 28.345 11.6091 28.3447C11.6623 28.3447 11.7156 28.3447 11.7704 28.3446C11.8237 28.3446 11.8771 28.3446 11.932 28.3446C12.0401 28.3446 12.1482 28.3445 12.2563 28.3445C12.3099 28.3445 12.3635 28.3445 12.4187 28.3444C13.2864 28.3441 14.154 28.3428 15.0217 28.3409C15.9142 28.3391 16.8068 28.3381 17.6994 28.338C18.1998 28.3379 18.7002 28.3375 19.2006 28.3361C19.6718 28.3348 20.1429 28.3346 20.614 28.3353C20.7863 28.3354 20.9585 28.335 21.1308 28.3343C22.4994 28.3285 23.7913 28.3408 24.8709 29.309C26.5109 31.041 25.8594 33.4204 25.8594 35.707C17.7641 35.707 9.66875 35.707 1.32812 35.707C1.32812 30.418 1.32812 30.418 2.22198 29.4155C3.10156 28.5866 4.10202 28.3511 5.27775 28.3523ZM4.54773 30.9368C4.17182 31.4205 4.07725 31.8164 4.14062 32.4258C4.30452 32.9875 4.69062 33.3404 5.18555 33.6269C5.74272 33.7596 6.19088 33.7004 6.69464 33.4206C7.08119 33.1302 7.2984 32.759 7.38281 32.2842C7.40397 31.8081 7.33011 31.3987 7.03125 31.0195C6.55786 30.5833 6.17698 30.4423 5.53528 30.4516C5.11983 30.4908 4.83076 30.6297 4.54773 30.9368ZM20.166 31.0976C19.8583 31.532 19.7741 31.8989 19.8438 32.4258C20.0143 32.9873 20.3903 33.3335 20.8838 33.6269C21.4011 33.7472 21.8889 33.7386 22.3575 33.4734C22.6828 33.2219 22.9174 32.8922 23.0469 32.5039C23.1011 31.9533 23.0867 31.4665 22.7344 31.0195C22.2635 30.5855 21.878 30.439 21.2387 30.4458C20.7812 30.5008 20.4655 30.7616 20.166 31.0976ZM9.55078 31.2832C9.3177 31.5862 9.33598 31.98 9.375 32.3476C9.46523 32.6669 9.55988 32.8615 9.84375 33.0508C10.0824 33.0668 10.3139 33.0737 10.5526 33.0735C10.6615 33.0742 10.6615 33.0742 10.7725 33.075C11.0129 33.0765 11.2532 33.0768 11.4935 33.077C11.6604 33.0775 11.8273 33.078 11.9942 33.0786C12.3442 33.0795 12.6943 33.0798 13.0443 33.0797C13.493 33.0797 13.9416 33.0818 14.3902 33.0845C14.7349 33.0863 15.0797 33.0866 15.4244 33.0865C15.5898 33.0867 15.7552 33.0874 15.9206 33.0886C16.152 33.0901 16.3833 33.0897 16.6146 33.0887C16.7172 33.09 16.7172 33.09 16.8218 33.0914C17.1383 33.0881 17.3039 33.075 17.5797 32.9068C17.8675 32.5931 17.8334 32.2574 17.8302 31.8529C17.801 31.5095 17.6578 31.3336 17.4219 31.0976C17.0991 30.992 16.7707 31.008 16.4347 31.0082C16.3667 31.0079 16.2987 31.0076 16.2286 31.0074C16.0039 31.0066 15.7792 31.0065 15.5545 31.0064C15.3982 31.0061 15.242 31.0059 15.0857 31.0056C14.7582 31.0051 14.4307 31.005 14.1032 31.005C13.6836 31.005 13.2639 31.004 12.8443 31.0026C12.5216 31.0018 12.1989 31.0016 11.8762 31.0016C11.7215 31.0015 11.5667 31.0012 11.412 31.0006C11.1957 30.9998 10.9793 31.0001 10.763 31.0005C10.6991 31.0001 10.6353 30.9996 10.5695 30.9992C10.1726 31.0014 9.86732 31.0345 9.55078 31.2832Z" fill="#6ADBD9"/>
<path d="M7.80714 22.0148C7.85879 22.0145 7.91045 22.0142 7.96366 22.0139C8.13523 22.0131 8.30678 22.0134 8.47836 22.0137C8.60199 22.0134 8.72562 22.013 8.84925 22.0125C9.18403 22.0115 9.5188 22.0114 9.85358 22.0116C10.1335 22.0117 10.4135 22.0113 10.6934 22.011C11.3542 22.0101 12.0149 22.0101 12.6756 22.0105C13.3561 22.011 14.0367 22.01 14.7172 22.0084C15.3025 22.007 15.8877 22.0065 16.473 22.0068C16.8221 22.0069 17.1712 22.0067 17.5204 22.0056C17.8488 22.0047 18.1773 22.0048 18.5057 22.0058C18.6258 22.006 18.746 22.0058 18.8661 22.0052C20.2824 21.9981 20.2824 21.9981 20.8441 22.4432C21.0432 22.6951 21.1941 22.9559 21.3379 23.2413C21.3846 23.3319 21.3846 23.3319 21.4322 23.4243C21.5297 23.6149 21.6263 23.806 21.7226 23.9972C21.8075 24.1656 21.8926 24.3338 21.9778 24.502C22.1473 24.8368 22.3162 25.1718 22.4848 25.507C22.5536 25.6438 22.6225 25.7805 22.6914 25.9172C22.7893 26.1116 22.8867 26.3062 22.984 26.5008C23.014 26.5603 23.044 26.6197 23.0749 26.6809C23.2812 27.0954 23.2812 27.0954 23.2812 27.2696C22.5852 27.2438 21.8891 27.218 21.1719 27.1914C20.6088 26.1306 20.0687 25.0631 19.5312 23.9883C15.6125 23.9883 11.6937 23.9883 7.65625 23.9883C6.85828 25.5818 6.85828 25.5818 6.09375 27.1914C5.37188 27.2172 4.65 27.243 3.90625 27.2696C4.23623 26.5717 4.23623 26.5717 4.3985 26.2298C4.50442 26.0066 4.61024 25.7834 4.71569 25.5599C4.96366 25.0346 5.2143 24.5106 5.46875 23.9883C5.50103 23.9219 5.5333 23.8554 5.56656 23.7869C5.65614 23.6042 5.74757 23.4226 5.83984 23.2413C5.86547 23.1888 5.8911 23.1363 5.91751 23.0822C6.15759 22.6202 6.46598 22.2754 6.96843 22.1085C7.26104 22.0363 7.50659 22.0154 7.80714 22.0148Z" fill="#6ADBD9"/>
<path opacity="0.5" d="M25.7717 12.709C25.8266 12.7087 25.8816 12.7084 25.9382 12.708C26.1229 12.7073 26.3074 12.7082 26.4921 12.7091C26.6242 12.7089 26.7564 12.7087 26.8886 12.7083C27.2479 12.7075 27.6071 12.7083 27.9664 12.7093C28.3419 12.7102 28.7174 12.7099 29.0929 12.7097C29.7235 12.7096 30.3541 12.7105 30.9846 12.712C31.7144 12.7136 32.4442 12.7139 33.174 12.7134C33.8752 12.7129 34.5763 12.7134 35.2775 12.7143C35.5763 12.7146 35.8752 12.7147 36.174 12.7145C36.5256 12.7144 36.8772 12.715 37.2288 12.7163C37.3581 12.7166 37.4874 12.7167 37.6167 12.7164C37.7927 12.7162 37.9686 12.7169 38.1446 12.7179C38.2432 12.718 38.3418 12.7182 38.4435 12.7183C38.6719 12.7382 38.6719 12.7382 38.8282 12.8945C38.8476 13.0772 38.8476 13.0772 38.8474 13.3114C38.8477 13.4005 38.848 13.4895 38.8483 13.5812C38.8479 13.6799 38.8474 13.7785 38.8469 13.8801C38.847 13.9853 38.8471 14.0905 38.8473 14.1957C38.8477 14.4857 38.8471 14.7758 38.8463 15.0658C38.8456 15.3782 38.8458 15.6906 38.846 16.003C38.846 16.5446 38.8456 17.0861 38.8447 17.6277C38.8434 18.4107 38.843 19.1937 38.8428 19.9768C38.8425 21.2471 38.8414 22.5174 38.8399 23.7877C38.8385 25.0219 38.8374 26.2561 38.8367 27.4904C38.8367 27.5672 38.8367 27.644 38.8366 27.7231C38.8363 28.3238 38.836 28.9245 38.8357 29.5252C38.8342 32.4712 38.8311 35.4172 38.8282 38.3632C34.2649 38.3632 29.7016 38.3632 25 38.3632C25 37.8992 25 37.4351 25 36.957C25.5957 36.8984 25.5957 36.8984 25.7806 36.8823C26.1648 36.8392 26.4151 36.7429 26.7188 36.4882C26.9381 36.1879 26.9831 35.9748 26.986 35.6057C26.9872 35.5078 26.9884 35.41 26.9897 35.3092C26.9898 35.2027 26.9898 35.0963 26.9898 34.9898C26.9903 34.8793 26.9909 34.7688 26.9916 34.6583C26.9926 34.4265 26.9928 34.1947 26.9923 33.9629C26.9918 33.6691 26.9942 33.3755 26.9974 33.0818C26.9994 32.8532 26.9996 32.6246 26.9993 32.3961C26.9995 32.288 27.0002 32.1799 27.0016 32.0719C27.0151 30.914 26.6925 29.9779 26.0938 28.9882C26.1353 28.9598 26.1768 28.9314 26.2195 28.9022C26.7025 28.5585 27.0353 28.2263 27.1625 27.6229C27.2599 26.8552 27.2691 26.0815 26.875 25.3945C26.5287 24.9675 26.0571 24.7413 25.5179 24.6652C25.4256 24.6559 25.4256 24.6559 25.3315 24.6465C25.2379 24.6369 25.2379 24.6369 25.1425 24.627C25.072 24.6202 25.072 24.6202 25 24.6132C24.9946 23.0995 24.9904 21.5858 24.9879 20.0721C24.9867 19.3693 24.985 18.6665 24.9823 17.9637C24.98 17.3512 24.9785 16.7388 24.978 16.1264C24.9777 15.802 24.977 15.4776 24.9753 15.1532C24.9737 14.848 24.9732 14.5429 24.9735 14.2377C24.9735 14.1255 24.973 14.0134 24.9721 13.9012C24.9709 13.7484 24.9713 13.5955 24.9718 13.4427C24.9716 13.3571 24.9714 13.2714 24.9712 13.1832C25 12.9726 25 12.9726 25.0854 12.8279C25.3133 12.6907 25.5072 12.7089 25.7717 12.709ZM27.7344 15.4726C27.5758 15.7104 27.5587 15.7541 27.5604 16.0204C27.5604 16.0839 27.5605 16.1473 27.5605 16.2126C27.5613 16.2789 27.5621 16.3452 27.5629 16.4134C27.5631 16.4746 27.5632 16.5358 27.5634 16.5989C27.5642 16.8273 27.5664 17.0557 27.5684 17.2841C27.5716 17.7949 27.5748 18.3057 27.5782 18.832C28.7899 18.832 30.0016 18.832 31.25 18.832C31.25 17.7234 31.25 16.6148 31.25 15.4726C30.7522 15.4672 30.2544 15.4626 29.7566 15.4597C29.5871 15.4585 29.4177 15.4569 29.2482 15.4549C29.0051 15.4521 28.7619 15.4507 28.5187 15.4497C28.4426 15.4485 28.3665 15.4473 28.2881 15.446C28.2177 15.446 28.1474 15.446 28.0749 15.446C28.0128 15.4455 27.9507 15.4449 27.8867 15.4444C27.8364 15.4537 27.7862 15.463 27.7344 15.4726ZM32.5782 15.4726C32.5782 16.5812 32.5782 17.6898 32.5782 18.832C33.7899 18.832 35.0016 18.832 36.25 18.832C36.2533 18.3067 36.2565 17.7814 36.2598 17.2402C36.2612 17.0744 36.2626 16.9086 36.2641 16.7377C36.2646 16.6068 36.265 16.4758 36.2653 16.3448C36.2665 16.2422 36.2665 16.2422 36.2677 16.1376C36.2678 15.9679 36.2597 15.7983 36.25 15.6288C36.1123 15.459 36.1123 15.459 35.9415 15.4538C35.8794 15.4541 35.8173 15.4545 35.7533 15.4549C35.6478 15.4549 35.6478 15.4549 35.5401 15.4549C35.464 15.4557 35.3879 15.4565 35.3095 15.4573C35.1928 15.4577 35.1928 15.4577 35.0737 15.458C34.8245 15.4589 34.5754 15.4608 34.3262 15.4628C34.1575 15.4636 33.9889 15.4643 33.8202 15.465C33.4062 15.4666 32.9922 15.4696 32.5782 15.4726ZM27.5782 20.1601C27.5749 20.6709 27.5717 21.1817 27.5684 21.7079C27.567 21.869 27.5655 22.03 27.5641 22.1959C27.5636 22.3234 27.5632 22.451 27.5629 22.5786C27.5621 22.6449 27.5613 22.7112 27.5605 22.7794C27.5605 22.8429 27.5604 22.9063 27.5604 22.9716C27.5601 23.0266 27.5597 23.0816 27.5594 23.1383C27.5704 23.3111 27.5704 23.3111 27.7344 23.5195C27.8917 23.5536 27.8917 23.5536 28.0749 23.5461C28.1452 23.5461 28.2156 23.546 28.2881 23.546C28.4023 23.5442 28.4023 23.5442 28.5187 23.5424C28.5965 23.542 28.6743 23.5417 28.7545 23.5414C29.0037 23.54 29.2528 23.5371 29.502 23.5341C29.6706 23.5329 29.8393 23.5319 30.008 23.5309C30.422 23.5285 30.836 23.5239 31.25 23.5195C31.25 22.4109 31.25 21.3023 31.25 20.1601C30.0383 20.1601 28.8266 20.1601 27.5782 20.1601ZM32.5782 20.1601C32.5782 21.2687 32.5782 22.3773 32.5782 23.5195C33.076 23.523 33.5738 23.5262 34.0716 23.528C34.2411 23.5288 34.4105 23.5299 34.58 23.5313C34.8231 23.5331 35.0663 23.534 35.3095 23.5347C35.3856 23.5355 35.4617 23.5363 35.5401 23.5372C35.6104 23.5372 35.6808 23.5372 35.7533 23.5372C35.8154 23.5376 35.8775 23.5379 35.9415 23.5383C36.1123 23.533 36.1123 23.533 36.25 23.3632C36.2637 23.1222 36.2681 22.8882 36.2653 22.6473C36.2651 22.5845 36.265 22.5217 36.2648 22.4569C36.264 22.2219 36.2618 21.9869 36.2598 21.7519C36.255 20.964 36.255 20.964 36.25 20.1601C35.0383 20.1601 33.8266 20.1601 32.5782 20.1601Z" fill="#3ACBC6" fill-opacity="0.6"/>
<path opacity="0.5" d="M15.7031 8.12891C16.0258 8.30843 16.2995 8.52744 16.5771 8.76855C16.6675 8.84605 16.7579 8.92346 16.8484 9.00079C16.8928 9.03867 16.9371 9.07655 16.9828 9.11558C17.2172 9.31387 17.4581 9.50395 17.6987 9.69476C18.0522 9.97633 18.4006 10.2641 18.75 10.5508C18.8932 10.668 19.0364 10.7852 19.1797 10.9023C20.0391 11.6055 20.8984 12.3086 21.7578 13.0117C21.8286 13.0696 21.8994 13.1275 21.9724 13.1872C22.1167 13.3053 22.2609 13.4235 22.4051 13.5418C22.4767 13.6005 22.5483 13.6592 22.6221 13.7197C22.7165 13.7972 22.7165 13.7972 22.8128 13.8763C23.0331 14.0635 23.0331 14.0635 23.2375 14.1842C23.5483 14.3921 23.786 14.5551 23.8993 14.9218C23.9243 15.2037 23.9248 15.4763 23.9168 15.7592C23.9166 15.8663 23.9167 15.9734 23.9172 16.0805C23.9174 16.3696 23.9128 16.6585 23.9073 16.9476C23.9024 17.2503 23.902 17.553 23.9011 17.8557C23.8986 18.4282 23.8922 19.0005 23.8844 19.573C23.8756 20.225 23.8714 20.877 23.8674 21.5291C23.8593 22.8697 23.8456 24.2102 23.8281 25.5508C23.6471 25.3761 23.5354 25.2262 23.4265 24.9985C23.3956 24.9349 23.3648 24.8712 23.3331 24.8056C23.3004 24.737 23.2677 24.6684 23.2339 24.5977C23.1628 24.4518 23.0917 24.3058 23.0205 24.1599C22.9092 23.9307 22.7983 23.7012 22.6884 23.4713C22.5817 23.2489 22.4733 23.0273 22.3648 22.8057C22.3329 22.7379 22.301 22.6701 22.2681 22.6002C21.9233 21.902 21.4381 21.3767 20.7031 21.0977C20.0581 20.9114 19.422 20.9193 18.7564 20.9212C18.6314 20.921 18.5063 20.9207 18.3812 20.9204C18.0432 20.9196 17.7052 20.9199 17.3672 20.9204C17.0125 20.9208 16.6577 20.9204 16.3029 20.9202C15.7072 20.9199 15.1115 20.9203 14.5158 20.921C13.8285 20.9219 13.1412 20.9216 12.4539 20.9208C11.8624 20.92 11.2709 20.9199 10.6794 20.9204C10.3267 20.9206 9.97409 20.9206 9.62143 20.9201C9.28971 20.9197 8.95799 20.92 8.62627 20.9209C8.50503 20.9211 8.38378 20.921 8.26254 20.9207C8.09606 20.9202 7.92961 20.9208 7.76313 20.9216C7.62385 20.9217 7.62385 20.9217 7.48176 20.9217C7.1193 20.946 6.76246 21.0264 6.40625 21.0977C6.40625 19.2156 6.40625 17.3336 6.40625 15.3945C6.66406 15.2914 6.92188 15.1883 7.1875 15.082C7.44951 14.8996 7.44951 14.8996 7.67578 14.6865C7.76229 14.6097 7.84897 14.5331 7.93579 14.4567C8.00158 14.3984 8.00158 14.3984 8.0687 14.3389C8.2891 14.1483 8.51944 13.971 8.75 13.793C9.20101 13.4426 9.63818 13.0784 10.0726 12.7078C10.4342 12.3995 10.803 12.1003 11.1719 11.8008C11.2723 11.7192 11.3727 11.6376 11.4731 11.556C11.6353 11.4242 11.7976 11.2924 11.9598 11.1606C12.4012 10.8022 12.8415 10.4424 13.2812 10.082C13.4959 9.90641 13.7105 9.73083 13.9252 9.5553C14.0706 9.43625 14.2158 9.31703 14.361 9.19763C14.8031 8.83432 15.2492 8.47744 15.7031 8.12891ZM12.6562 12.8164C12.6131 13.0353 12.6131 13.0353 12.6257 13.2836C12.6265 13.3655 12.6273 13.4474 12.6281 13.5318C12.6309 13.6357 12.6338 13.7396 12.6367 13.8467C12.6432 14.177 12.6496 14.5073 12.6562 14.8477C13.4555 14.8477 14.2547 14.8477 15.0781 14.8477C15.0781 14.1 15.0781 13.3523 15.0781 12.582C14.7365 12.5772 14.3949 12.5724 14.043 12.5674C13.9357 12.5652 13.8284 12.5631 13.7179 12.5609C13.5906 12.56 13.5906 12.56 13.4607 12.5591C13.374 12.5579 13.2872 12.5567 13.1979 12.5554C12.9368 12.5857 12.8299 12.6189 12.6562 12.8164ZM16.4062 12.582C16.4062 13.3297 16.4062 14.0773 16.4062 14.8477C17.2055 14.8477 18.0047 14.8477 18.8281 14.8477C18.8346 14.5173 18.841 14.187 18.8477 13.8467C18.8505 13.7428 18.8533 13.6389 18.8563 13.5318C18.8571 13.4499 18.8578 13.368 18.8586 13.2836C18.8611 13.1578 18.8611 13.1578 18.8636 13.0295C18.8466 12.8117 18.8466 12.8117 18.7007 12.6714C18.4624 12.5563 18.288 12.5554 18.0237 12.5591C17.9388 12.5597 17.8539 12.5603 17.7665 12.5609C17.6056 12.5641 17.6056 12.5641 17.4414 12.5674C16.929 12.5746 16.929 12.5746 16.4062 12.582ZM12.6562 16.1758C12.6514 16.5061 12.6466 16.8364 12.6416 17.1768C12.6395 17.2807 12.6373 17.3846 12.6351 17.4916C12.6346 17.5735 12.634 17.6554 12.6334 17.7398C12.6321 17.8237 12.6309 17.9075 12.6296 17.994C12.6413 18.2044 12.6413 18.2044 12.7435 18.352C12.9616 18.4846 13.1384 18.4677 13.392 18.4643C13.5244 18.4634 13.5244 18.4634 13.6594 18.4625C13.7715 18.4604 13.8836 18.4583 13.999 18.4561C14.5332 18.4488 14.5332 18.4488 15.0781 18.4414C15.0781 17.6938 15.0781 16.9461 15.0781 16.1758C14.2789 16.1758 13.4797 16.1758 12.6562 16.1758ZM16.4062 16.1758C16.4062 16.9234 16.4062 17.6711 16.4062 18.4414C16.7624 18.4462 17.1185 18.4511 17.4854 18.4561C17.5974 18.4582 17.7095 18.4603 17.825 18.4625C17.9132 18.4631 18.0014 18.4637 18.0923 18.4643C18.1828 18.4655 18.2732 18.4667 18.3663 18.468C18.5896 18.4579 18.5896 18.4579 18.7408 18.352C18.8665 18.1434 18.8546 17.9821 18.851 17.7398C18.8504 17.6579 18.8498 17.576 18.8492 17.4916C18.8471 17.3877 18.845 17.2838 18.8428 17.1768C18.8379 16.8464 18.8331 16.5161 18.8281 16.1758C18.0289 16.1758 17.2297 16.1758 16.4062 16.1758Z" fill="#3ACBC6" fill-opacity="0.6"/>
<path d="M15.703 2.58203C16.0257 2.76155 16.2994 2.98057 16.577 3.22168C16.6674 3.29917 16.7578 3.37659 16.8483 3.45392C16.8927 3.4918 16.937 3.52968 16.9826 3.5687C17.2171 3.767 17.458 3.95708 17.6985 4.14789C18.0521 4.42946 18.4005 4.71722 18.7499 5.00391C19.2437 5.40872 19.7385 5.81233 20.2343 6.21484C20.73 6.61736 21.2247 7.02105 21.7186 7.42578C21.8618 7.54298 22.0051 7.66017 22.1483 7.77734C23.4374 8.83203 23.4374 8.83203 24.7264 9.88672C24.797 9.94442 24.8676 10.0021 24.9404 10.0616C25.0869 10.1816 25.2331 10.3018 25.3792 10.4223C25.7564 10.7329 26.1343 11.0359 26.534 11.3171C26.5691 11.3478 26.6043 11.3785 26.6405 11.4102C26.6405 11.4617 26.6405 11.5133 26.6405 11.5664C26.5838 11.5671 26.5271 11.5679 26.4687 11.5686C26.2101 11.5728 25.9517 11.5794 25.6932 11.5859C25.604 11.587 25.5148 11.5882 25.4229 11.5893C24.9243 11.6038 24.5947 11.6161 24.2186 11.957C23.899 12.3285 23.849 12.6561 23.828 13.1289C23.4484 13.0107 23.2053 12.7927 22.9149 12.5332C22.8173 12.4478 22.7197 12.3624 22.6219 12.2772C22.5744 12.2356 22.5269 12.194 22.4779 12.1512C22.2415 11.947 21.9965 11.754 21.7516 11.5603C21.3986 11.2802 21.0514 10.9929 20.703 10.707C20.5598 10.5898 20.4166 10.4726 20.2733 10.3555C20.063 10.1834 19.8527 10.0113 19.6425 9.83911C19.2156 9.48939 18.7877 9.14085 18.3593 8.79297C17.9991 8.50054 17.6392 8.20786 17.2802 7.91406C17.2135 7.85958 17.1468 7.8051 17.0781 7.74896C16.9324 7.62928 16.7872 7.50897 16.6423 7.38824C16.566 7.3249 16.4897 7.26155 16.411 7.19629C16.3426 7.13919 16.2742 7.08209 16.2038 7.02325C16.0403 6.89791 15.8906 6.80577 15.703 6.72266C15.0903 7.19571 14.4897 7.67853 13.9045 8.18523C13.5834 8.46278 13.2564 8.73109 12.9235 8.99438C12.5705 9.27451 12.2233 9.56182 11.8749 9.84766C11.7317 9.96487 11.5884 10.0821 11.4452 10.1992C11.3743 10.2572 11.3034 10.3152 11.2303 10.375C8.00769 13.0117 8.00769 13.0117 7.79529 13.1854C7.64374 13.3095 7.49239 13.4338 7.34119 13.5583C7.26465 13.6212 7.18811 13.6842 7.10925 13.749C7.03997 13.8061 6.97068 13.8632 6.89929 13.9221C6.58982 14.1693 6.43359 14.2422 6.04053 14.2407C5.95089 14.2406 5.86125 14.2405 5.7689 14.2404C5.67303 14.2394 5.57717 14.2384 5.47839 14.2373C5.38076 14.2366 5.28313 14.236 5.18254 14.2353C4.88724 14.2325 4.59202 14.228 4.29675 14.2227C4.21101 14.2211 4.12527 14.2196 4.03693 14.2181C3.80932 14.2132 3.58189 14.2063 3.35437 14.1982C3.28666 14.1965 3.21894 14.1948 3.14918 14.193C2.69122 14.1724 2.69122 14.1724 2.52275 14.0386C2.42175 13.9102 2.42175 13.9102 2.37598 13.6898C2.4409 13.3375 2.65043 13.1927 2.9198 12.9824C2.96978 12.9416 3.01977 12.9008 3.07126 12.8587C3.21831 12.7391 3.36671 12.6214 3.5155 12.5039C3.5869 12.4462 3.65831 12.3885 3.73187 12.329C3.85663 12.2285 3.98185 12.1285 4.10754 12.0291C4.46055 11.7489 4.80774 11.4616 5.15613 11.1758C5.29934 11.0586 5.44257 10.9414 5.58582 10.8242C5.65671 10.7662 5.72761 10.7082 5.80066 10.6484C11.6014 5.90234 11.6014 5.90234 11.8178 5.72534C11.956 5.61227 12.0941 5.49915 12.2322 5.38599C12.7132 4.99204 13.1954 4.59966 13.6781 4.20789C13.9876 3.95659 14.2963 3.70433 14.6044 3.45117C14.9657 3.15501 15.3325 2.86656 15.703 2.58203Z" fill="#6ADBD9"/>
<path d="M30.2379 8.18562C30.3611 8.1845 30.3611 8.1845 30.4867 8.18336C30.5758 8.18343 30.6648 8.1835 30.7565 8.18358C30.8477 8.18324 30.9388 8.18291 31.0327 8.18256C31.2257 8.18211 31.4187 8.18208 31.6117 8.18241C31.9077 8.18266 32.2036 8.18083 32.4995 8.17885C32.6868 8.17867 32.874 8.17861 33.0612 8.17869C33.1945 8.17761 33.1945 8.17761 33.3305 8.17651C33.4541 8.17724 33.4541 8.17724 33.5802 8.17799C33.6527 8.17794 33.7253 8.17789 33.8 8.17784C33.9844 8.20708 33.9844 8.20708 34.1254 8.30756C34.2866 8.53869 34.2426 8.81018 34.2334 9.0811C34.2318 9.16894 34.2318 9.16894 34.2302 9.25856C34.2274 9.40288 34.2232 9.54717 34.2188 9.69145C34.2724 9.69063 34.326 9.68981 34.3812 9.68897C34.6233 9.68573 34.8653 9.68369 35.1074 9.68168C35.1918 9.68038 35.2762 9.67907 35.3632 9.67772C35.4437 9.67721 35.5243 9.67671 35.6073 9.67619C35.719 9.67496 35.719 9.67496 35.8329 9.67371C36.0156 9.69145 36.0156 9.69145 36.1719 9.8477C36.1719 10.4149 36.1719 10.9821 36.1719 11.5665C33.3617 11.5665 30.5516 11.5665 27.6562 11.5665C27.6562 9.92583 27.6562 9.92583 27.8125 9.69145C28.0024 9.66484 28.0024 9.66484 28.2379 9.66856C28.322 9.66932 28.4061 9.67007 28.4927 9.67085C28.5809 9.67281 28.669 9.67478 28.7598 9.6768C28.8485 9.67786 28.9372 9.67892 29.0286 9.68001C29.2483 9.68278 29.4679 9.68664 29.6875 9.69145C29.6857 9.59739 29.6839 9.50333 29.682 9.40642C29.6805 9.28333 29.6791 9.16024 29.6777 9.03715C29.6764 8.97512 29.6751 8.91308 29.6738 8.84917C29.6724 8.68716 29.6794 8.52514 29.6875 8.36333C29.887 8.16378 29.9609 8.18699 30.2379 8.18562Z" fill="#6ADBD9"/>
<path d="M2.81256 36.957C3.92116 36.957 5.02975 36.957 6.17194 36.957C6.17194 38.2852 6.17194 38.2852 5.93756 38.832C5.48431 39.2005 5.05497 39.1899 4.48737 39.1787C4.40806 39.1793 4.32875 39.1798 4.24704 39.1804C3.81657 39.1767 3.49426 39.1561 3.12506 38.9102C2.60297 38.3341 2.81256 37.8096 2.81256 36.957Z" fill="#6ADBD9"/>
<path d="M21.0938 36.957C22.1766 36.957 23.2594 36.957 24.375 36.957C24.375 38.4414 24.375 38.4414 24.0625 38.9102C23.6448 39.2151 23.192 39.1822 22.6953 39.1787C22.6157 39.1803 22.536 39.1818 22.4539 39.1834C21.9879 39.1831 21.6892 39.1571 21.3281 38.832C21.0938 38.5195 21.0938 38.5195 21.0938 36.957Z" fill="#6ADBD9"/>
<path d="M23.9062 25.7851C24.1845 25.776 24.4628 25.7705 24.7412 25.7656C24.8593 25.7617 24.8593 25.7617 24.9797 25.7577C25.5645 25.75 25.5645 25.75 25.8707 25.928C26.1226 26.2229 26.1085 26.4941 26.1133 26.8691C26.1153 26.964 26.1173 27.0589 26.1194 27.1566C26.092 27.4445 26.0329 27.5881 25.8594 27.8164C25.6528 27.9197 25.4939 27.9021 25.2637 27.8994C25.1853 27.8987 25.107 27.898 25.0262 27.8973C24.966 27.8964 24.9058 27.8955 24.8438 27.8945C24.7017 27.6018 24.5602 27.3087 24.4189 27.0156C24.3786 26.9325 24.3383 26.8494 24.2967 26.7638C24.2389 26.6438 24.2389 26.6438 24.18 26.5212C24.1444 26.4476 24.1088 26.3739 24.0721 26.2981C23.9967 26.1259 23.9442 25.9686 23.9062 25.7851Z" fill="#6ADBD9"/>
<path d="M2.44608 25.7657C2.5664 25.7678 2.5664 25.7678 2.68915 25.7699C2.88652 25.7736 3.08374 25.7787 3.28104 25.7852C3.23363 26.0845 3.14447 26.3203 3.00729 26.5899C2.96877 26.6662 2.93025 26.7425 2.89056 26.8211C2.85023 26.8998 2.8099 26.9785 2.76834 27.0596C2.72771 27.1398 2.68707 27.22 2.6452 27.3027C2.54507 27.5002 2.4445 27.6975 2.34354 27.8946C1.57422 27.9423 1.57422 27.9423 1.27695 27.7847C1.11532 27.4736 1.12329 27.1855 1.12772 26.8399C1.12585 26.7731 1.12399 26.7063 1.12207 26.6376C1.12279 26.3288 1.13316 26.152 1.31448 25.8963C1.68968 25.7281 2.04031 25.7522 2.44608 25.7657Z" fill="#6ADBD9"/>
</svg>
