<svg width="40" height="41" viewBox="0 0 40 41" fill="none" xmlns="http://www.w3.org/2000/svg">
<path d="M19.8519 27.9631C22.0881 27.8918 24.2172 28.8651 25.8345 30.3663C27.2208 31.7065 28.2463 33.6654 28.3202 35.6044C28.3034 36.2327 28.1694 36.6627 27.7346 37.1215C25.5257 39.0472 21.8694 39.5798 19.0624 39.457C16.7833 39.2806 13.9268 38.6211 12.1874 37.0351C11.6906 36.4161 11.6442 35.7729 11.7186 35.0039C12.0801 32.7452 13.4242 30.8012 15.2565 29.4732C16.6244 28.5102 18.1969 28.0583 19.8519 27.9631Z" fill="#6ADBD9"/>
<path opacity="0.5" d="M35.2344 28.9102C35.3086 28.9477 35.3828 28.9851 35.4593 29.0237C36.9174 29.807 37.9994 31.158 38.5379 32.7164C38.7743 33.5095 38.9654 34.229 38.5953 35.0091C37.7703 36.3062 35.5912 36.7039 34.2007 37.0132C32.362 37.3741 30.6179 37.1103 28.8281 36.6446C28.8405 36.5782 28.8529 36.5118 28.8657 36.4435C29.142 34.621 28.4372 32.8044 27.4127 31.3229C27.2803 31.1202 27.1892 30.9347 27.1094 30.7071C28.0742 29.5428 29.261 28.7967 30.7031 28.3633C30.765 28.3441 30.8268 28.3249 30.8905 28.305C32.3187 27.9417 33.9529 28.2242 35.2344 28.9102Z" fill="#3ACBC6" fill-opacity="0.6"/>
<path opacity="0.5" d="M11.4844 29.3789C11.8143 29.6467 12.1189 29.9406 12.4219 30.2382C12.4757 30.2908 12.5295 30.3434 12.5849 30.3975C12.6879 30.4996 12.7895 30.603 12.8906 30.707C12.7876 31.0053 12.6433 31.2479 12.4706 31.5088C11.4699 33.0252 10.8305 34.8153 11.1719 36.6445C8.12004 37.4309 5.05497 37.3456 2.24886 35.7634C1.67686 35.4096 1.35203 35.0921 1.18166 34.4228C1.05369 33.0258 1.84285 31.5769 2.70357 30.5324C4.91087 27.9668 8.68268 27.4195 11.4844 29.3789Z" fill="#3ACBC6" fill-opacity="0.6"/>
<path d="M22.578 19.6915C23.2896 20.2568 23.7823 21.137 23.9062 22.0352C24.0121 23.2555 23.8267 24.333 23.0468 25.3165C22.3462 26.085 21.4223 26.6137 20.3701 26.6708C19.1601 26.6956 18.1459 26.4453 17.2286 25.6091C16.375 24.7214 16.0598 23.7245 16.0653 22.5215C16.0877 21.4916 16.5095 20.6257 17.2021 19.8672C18.7319 18.4403 20.9508 18.4794 22.578 19.6915Z" fill="#6ADBD9"/>
<path d="M19.8438 2.26953C19.9746 2.29188 20.105 2.3178 20.2344 2.34766C20.2611 2.42917 20.2879 2.51069 20.3155 2.59468C20.4159 2.90013 20.5167 3.20542 20.6178 3.51066C20.6612 3.64223 20.7046 3.77383 20.7478 3.90548C20.8103 4.09586 20.8732 4.28607 20.9363 4.47626C20.9552 4.53415 20.9741 4.59204 20.9935 4.65168C21.1338 5.07275 21.302 5.45301 21.4844 5.86328C22.7219 5.88906 23.9594 5.91484 25.2344 5.94141C25.2602 6.07031 25.2859 6.19922 25.3125 6.33203C24.7023 6.81172 24.0814 7.2719 23.4445 7.71577C23.0716 7.97604 22.7059 8.2445 22.3438 8.51953C22.4307 8.97851 22.5572 9.41573 22.7032 9.85864C22.7222 9.91602 22.7411 9.97341 22.7606 10.0325C22.8402 10.2729 22.9203 10.5131 23.0008 10.7532C23.06 10.9301 23.1185 11.1072 23.1769 11.2844C23.1952 11.3383 23.2135 11.3922 23.2324 11.4477C23.3251 11.7301 23.3808 11.9719 23.3594 12.2695C23.2013 12.3333 23.2013 12.3333 22.9688 12.3477C22.7509 12.243 22.5652 12.0976 22.373 11.9521C22.316 11.9106 22.2589 11.8691 22.2001 11.8264C21.8755 11.5893 21.5561 11.3458 21.2372 11.1013C21.1709 11.0511 21.1046 11.0008 21.0363 10.9491C20.907 10.8508 20.7786 10.7515 20.6511 10.651C20.5921 10.6062 20.5332 10.5613 20.4724 10.5151C20.4207 10.4748 20.369 10.4345 20.3158 10.3931C20.0992 10.289 19.9911 10.3205 19.7656 10.3945C19.6102 10.4794 19.6102 10.4794 19.4666 10.5914C19.4111 10.6322 19.3557 10.673 19.2986 10.7151C19.24 10.7592 19.1814 10.8032 19.1211 10.8486C18.9959 10.9405 18.8707 11.0324 18.7454 11.1242C18.5535 11.2661 18.3617 11.4084 18.1704 11.5512C17.9916 11.6842 17.8118 11.8158 17.6318 11.9473C17.5773 11.9886 17.5227 12.03 17.4665 12.0726C17.0834 12.3508 17.0834 12.3508 16.7984 12.3336C16.7463 12.3125 16.6943 12.2913 16.6406 12.2695C16.6846 11.8064 16.7829 11.401 16.9342 10.9622C16.977 10.8339 17.0199 10.7056 17.0627 10.5773C17.1302 10.3775 17.1979 10.1778 17.2659 9.97816C17.3318 9.78392 17.3967 9.58937 17.4615 9.39478C17.4822 9.33512 17.5029 9.27546 17.5242 9.214C17.6204 8.92383 17.6804 8.73221 17.5781 8.44141C17.4627 8.32291 17.4627 8.32291 17.3123 8.22443C17.2282 8.16497 17.2282 8.16497 17.1425 8.10432C17.0816 8.06248 17.0207 8.02064 16.958 7.97754C16.8959 7.93364 16.8337 7.88973 16.7697 7.8445C16.571 7.70411 16.3715 7.56482 16.1719 7.42578C15.9091 7.24282 15.6472 7.05878 15.3857 6.87402C15.3249 6.83219 15.264 6.79035 15.2013 6.74724C15.1452 6.70761 15.0892 6.66797 15.0314 6.62714C14.9819 6.59269 14.9323 6.55824 14.8813 6.52275C14.7398 6.38502 14.7099 6.29222 14.6875 6.09766C14.7133 6.04609 14.7391 5.99453 14.7656 5.94141C16.0031 5.91563 17.2406 5.88984 18.5156 5.86328C18.7215 5.40016 18.9062 4.95756 19.061 4.479C19.0912 4.38713 19.0912 4.38713 19.1221 4.29341C19.1856 4.10067 19.2486 3.90777 19.3115 3.71484C19.3753 3.5197 19.4392 3.3246 19.5034 3.12958C19.5431 3.00889 19.5826 2.88813 19.6219 2.76728C19.7569 2.35642 19.7569 2.35642 19.8438 2.26953Z" fill="#6ADBD9"/>
<path opacity="0.5" d="M9.41406 21.528C10.1391 22.0546 10.605 22.7142 10.7812 23.5977C10.8792 24.5579 10.7121 25.3765 10.1465 26.1654C9.55243 26.8412 8.78686 27.1813 7.90527 27.2989C7.09138 27.3367 6.31471 27.086 5.69763 26.5548C4.99114 25.8769 4.62796 25.1504 4.58008 24.1641C4.60221 23.276 4.94462 22.5703 5.55237 21.9476C6.60338 20.9497 8.15429 20.7682 9.41406 21.528Z" fill="#3ACBC6" fill-opacity="0.6"/>
<path opacity="0.5" d="M33.96 21.5468C34.714 22.0894 35.1974 22.7289 35.369 23.6589C35.484 24.5774 35.2735 25.3253 34.7657 26.0976C34.3084 26.6796 33.6339 27.073 32.9151 27.2402C31.8854 27.3567 31.0123 27.1547 30.1856 26.5035C29.6134 25.9746 29.2708 25.2603 29.1889 24.4872C29.1612 23.5847 29.329 22.812 29.9244 22.1157C31.0005 21.0054 32.6163 20.7008 33.96 21.5468Z" fill="#3ACBC6" fill-opacity="0.6"/>
<path d="M20 12.5625C20.2344 12.582 20.2344 12.582 20.3906 12.7383C20.4104 12.9102 20.4104 12.9102 20.4108 13.1265C20.4113 13.2073 20.4118 13.2881 20.4123 13.3714C20.412 13.4589 20.4117 13.5465 20.4114 13.6367C20.4115 13.7263 20.4117 13.8159 20.4118 13.9082C20.4119 14.0978 20.4116 14.2875 20.411 14.4772C20.4101 14.7683 20.411 15.0594 20.412 15.3506C20.4119 15.5345 20.4117 15.7184 20.4114 15.9023C20.4117 15.9899 20.412 16.0775 20.4123 16.1677C20.4118 16.2485 20.4113 16.3293 20.4108 16.4126C20.4106 16.5196 20.4106 16.5196 20.4104 16.6288C20.3906 16.8008 20.3906 16.8008 20.2344 16.957C20 16.9766 20 16.9766 19.7656 16.957C19.567 16.7584 19.5896 16.6879 19.5891 16.4126C19.5886 16.3318 19.5882 16.251 19.5876 16.1677C19.588 16.0801 19.5883 15.9926 19.5886 15.9023C19.5885 15.8128 19.5883 15.7232 19.5882 15.6309C19.588 15.4412 19.5883 15.2516 19.589 15.0619C19.5898 14.7707 19.589 14.4796 19.588 14.1885C19.5881 14.0046 19.5883 13.8206 19.5886 13.6367C19.5883 13.5492 19.588 13.4616 19.5876 13.3714C19.5881 13.2906 19.5886 13.2097 19.5891 13.1265C19.5893 13.0551 19.5894 12.9838 19.5895 12.9102C19.6225 12.6242 19.7235 12.5855 20 12.5625Z" fill="#6ADBD9"/>
<path d="M26.4844 16.0195C26.6308 16.1513 26.6308 16.1513 26.7187 16.332C26.7045 16.7281 26.4712 16.94 26.2051 17.2051C26.1613 17.2496 26.1174 17.2942 26.0722 17.3401C25.9794 17.4337 25.8862 17.527 25.7926 17.6199C25.6499 17.7622 25.5093 17.9064 25.3688 18.0509C25.2782 18.1418 25.1875 18.2326 25.0967 18.3233C25.055 18.3665 25.0132 18.4097 24.9702 18.4542C24.7647 18.6547 24.6423 18.7494 24.3543 18.7887C24.1406 18.7539 24.1406 18.7539 23.9844 18.6269C23.9062 18.4414 23.9062 18.4414 23.9532 18.2237C24.081 17.93 24.2558 17.7383 24.4824 17.5194C24.5234 17.4787 24.5645 17.4379 24.6067 17.3959C24.693 17.3104 24.7797 17.2252 24.8668 17.1405C25.0003 17.0104 25.1326 16.8794 25.2649 16.7481C25.349 16.665 25.4333 16.5819 25.5176 16.4989C25.5771 16.4402 25.5771 16.4402 25.6379 16.3803C25.9217 16.1042 26.0788 15.97 26.4844 16.0195Z" fill="#6ADBD9"/>
<path d="M13.5157 16.0195C13.9099 16.025 14.128 16.1097 14.4084 16.3884C14.4463 16.4285 14.4843 16.4686 14.5233 16.5099C14.564 16.5511 14.6047 16.5922 14.6466 16.6346C14.7753 16.7654 14.9023 16.8978 15.0293 17.0303C15.1164 17.119 15.2036 17.2077 15.2909 17.2962C16.0095 18.0297 16.0095 18.0297 16.0303 18.3633C16.0157 18.5977 16.0157 18.5977 15.8594 18.7539C15.6471 18.7915 15.6471 18.7915 15.3907 18.7539C15.2 18.6108 15.0462 18.4771 14.8807 18.309C14.8344 18.2633 14.788 18.2175 14.7403 18.1705C14.6429 18.0737 14.546 17.9763 14.4498 17.8784C14.3021 17.7288 14.1519 17.5822 14.0013 17.4355C13.9069 17.3411 13.8127 17.2465 13.7186 17.1517C13.6735 17.108 13.6285 17.0643 13.582 17.0192C13.3727 16.8023 13.2809 16.6957 13.2832 16.3882C13.3594 16.1758 13.3594 16.1758 13.5157 16.0195Z" fill="#6ADBD9"/>
</svg>
