<svg width="1440" height="1080" viewBox="0 0 1440 1080" fill="none" xmlns="http://www.w3.org/2000/svg">
<g clip-path="url(#clip0_1027_5956)">
<g clip-path="url(#clip1_1027_5956)">
<path d="M1440 1079.51H0V1012.56C19.31 1009.56 38.77 1008.84 58.28 1009.12C79.3706 1009.44 100.379 1011.83 121 1016.27C135.48 1019.36 150 1022.27 164.6 1024.79C175.67 1026.68 186.85 1027.88 198.02 1029.16C209.683 1030.53 221.408 1031.3 233.15 1031.48C248.311 1031.64 263.471 1031.03 278.57 1029.65C289.51 1028.65 300.47 1027.73 311.37 1026.4C323.848 1024.85 336.208 1022.47 348.37 1019.28C360.05 1016.28 371.66 1012.99 383.32 1009.94C393.821 1007.33 404.475 1005.37 415.22 1004.09C421.99 1003.2 428.77 1002.27 435.57 1001.85C441.564 1001.46 447.576 1001.46 453.57 1001.85C474.64 1003.26 495.32 1007.36 515.78 1012.34C547.37 1020.07 579 1028.2 610.54 1036.25C635.13 1042.52 659.74 1048.7 684.59 1053.83C700.9 1057.19 717.29 1060.05 733.85 1061.89C749.008 1063.58 764.281 1064.01 779.51 1063.17C789.98 1062.59 800.51 1061.97 810.89 1060.89C829.68 1058.89 848.322 1055.68 866.7 1051.28C889.219 1046.03 911.367 1039.3 933 1031.14C961.65 1020.29 990.77 1010.92 1020.24 1002.56C1027.24 1000.56 1034.11 998.4 1041.12 996.65C1050.63 994.438 1060.35 993.254 1070.12 993.12C1086.03 992.766 1101.94 993.534 1117.74 995.42C1143.49 998.28 1168.94 1002.95 1194.35 1007.84C1212.82 1011.4 1231.26 1015.11 1249.78 1018.32C1261.33 1020.32 1273 1021.76 1284.66 1023.05C1295.91 1024.29 1307.2 1025.34 1318.5 1025.9C1330.39 1026.48 1342.31 1026.29 1354.22 1026.59C1381.05 1027.28 1406.59 1021.4 1431.4 1011.7C1434.11 1010.65 1436.79 1009.54 1439.52 1008.44M1153.14 1008.29V1007.43C1150.14 1006.65 1147.27 1005.71 1144.28 1005.1C1129.8 1002.1 1115.1 1001.1 1100.35 1000.71C1085.44 1000.41 1070.53 1001.41 1055.79 1003.71C1053 1004.13 1050.23 1004.71 1047.45 1005.22V1005.83C1082.8 1003.34 1118.05 1002.31 1153.13 1008.29H1153.14ZM303.8 1038.87L303.65 1038.51C303.1 1038.62 302.54 1038.69 302.01 1038.85C299.86 1039.49 297.72 1040.19 295.57 1040.85C282.83 1044.57 269.91 1046.36 256.57 1045.24C248.11 1044.52 239.57 1044.24 231.13 1043.92C227.147 1043.73 223.156 1044.07 219.26 1044.92C219.956 1045.08 220.666 1045.17 221.38 1045.18C224.38 1045.35 227.38 1045.46 230.38 1045.71C240.17 1046.53 249.94 1047.57 259.74 1048.2C274.41 1049.14 288.34 1045.9 301.74 1040.03C302.44 1039.68 303.11 1039.25 303.8 1038.87ZM783.41 1075.48C783.41 1075.28 783.41 1075.07 783.41 1074.86C782.59 1074.86 781.78 1074.86 780.96 1074.86C773.47 1074.99 765.96 1075.3 758.49 1075.22C744.14 1075.07 729.93 1073.22 715.76 1071.22C701.35 1069.22 686.98 1066.8 672.6 1064.57C671.08 1064.34 669.55 1064.17 668.03 1063.97C672.608 1065.19 677.248 1066.17 681.93 1066.9C701.93 1070.14 721.99 1073.43 742.18 1075.65C753.6 1076.99 765.122 1077.24 776.59 1076.41C778.86 1076.23 781.13 1075.8 783.41 1075.48ZM1250.79 1029.54V1029.95C1252.66 1030.32 1254.52 1030.74 1256.4 1031.05C1267.88 1032.95 1279.35 1034.89 1290.85 1036.69C1305.32 1038.95 1319.78 1041.23 1334.4 1042.28C1343.95 1043.06 1353.54 1042.95 1363.07 1041.94C1364.63 1041.75 1366.33 1041.83 1367.85 1040.79H1364C1354.1 1040.79 1344.18 1041.24 1334.3 1040.79C1325.3 1040.38 1316.4 1039.27 1307.5 1038.06C1292.26 1035.98 1277.06 1033.59 1261.85 1031.31C1258.13 1030.76 1254.46 1030.13 1250.79 1029.54ZM1019.07 1012.38C998.43 1015.78 979.35 1023.95 960.17 1031.83C980.13 1026.36 999.33 1018.62 1019.07 1012.38ZM137.74 1031.45C120.24 1023.07 101.53 1021.99 82.61 1022.18C101.198 1023.85 119.629 1026.95 137.74 1031.45ZM416.12 1014L415.98 1013.43C407.25 1010.88 387.92 1014.59 384.18 1019.63L385.97 1019.26C391.15 1018.12 396.3 1016.81 401.53 1015.89C405.44 1015.21 409.45 1015.06 413.41 1014.62C414.325 1014.47 415.23 1014.26 416.12 1014ZM1039.88 1022.64C1040.45 1022.63 1041.02 1022.58 1041.59 1022.51C1047.65 1021.34 1053.83 1020.9 1060 1021.21C1061.17 1021.25 1062.33 1021.19 1063.49 1021.03C1063.72 1021.04 1063.95 1021 1064.17 1020.91C1064.38 1020.82 1064.57 1020.69 1064.73 1020.51C1064.88 1020.34 1064.99 1020.13 1065.06 1019.91C1065.12 1019.68 1065.13 1019.45 1065.09 1019.22C1064.32 1018.88 1063.52 1018.64 1062.69 1018.52C1059.79 1018.37 1056.88 1018.38 1053.98 1018.57C1049.07 1019.03 1044.29 1020.39 1039.88 1022.59V1022.64Z" fill="white"/>
<path d="M1153.13 1008.29C1118.05 1002.29 1082.8 1003.34 1047.52 1005.8V1005.19C1050.3 1004.68 1053.07 1004.1 1055.86 1003.68C1070.6 1001.38 1085.51 1000.38 1100.42 1000.68C1115.17 1001.04 1129.87 1002.09 1144.35 1005.07C1147.35 1005.68 1150.26 1006.62 1153.21 1007.4L1153.13 1008.29Z" fill="black"/>
<path d="M303.8 1038.87C303.11 1039.25 302.44 1039.68 301.72 1039.99C288.34 1045.86 274.41 1049.1 259.72 1048.16C249.92 1047.53 240.15 1046.49 230.36 1045.67C227.36 1045.42 224.36 1045.31 221.36 1045.14C220.646 1045.13 219.936 1045.04 219.24 1044.88C223.136 1044.03 227.127 1043.69 231.11 1043.88C239.59 1044.22 248.11 1044.48 256.55 1045.2C269.86 1046.32 282.78 1044.53 295.55 1040.81C297.7 1040.18 299.84 1039.48 301.99 1038.81C302.52 1038.65 303.08 1038.58 303.63 1038.47L303.8 1038.87Z" fill="black"/>
<path d="M783.41 1075.48C781.13 1075.8 778.86 1076.23 776.57 1076.42C765.102 1077.25 753.58 1077 742.16 1075.66C721.97 1073.44 701.94 1070.15 681.91 1066.91C677.225 1066.19 672.582 1065.22 668 1064C669.52 1064.2 671 1064.37 672.57 1064.6C686.95 1066.83 701.32 1069.21 715.73 1071.25C729.9 1073.25 744.11 1075.1 758.46 1075.25C765.95 1075.33 773.46 1075.02 780.93 1074.89C781.75 1074.89 782.56 1074.89 783.38 1074.89C783.4 1075.07 783.4 1075.28 783.41 1075.48Z" fill="black"/>
<path d="M1250.79 1029.54C1254.46 1030.13 1258.13 1030.76 1261.79 1031.31C1277 1033.59 1292.2 1035.98 1307.44 1038.06C1316.34 1039.27 1325.29 1040.38 1334.24 1040.79C1344.12 1041.24 1354.04 1040.79 1363.94 1040.79H1367.85C1366.33 1041.79 1364.63 1041.79 1363.07 1041.94C1353.54 1042.95 1343.95 1043.06 1334.4 1042.28C1319.78 1041.23 1305.32 1038.95 1290.85 1036.69C1279.35 1034.89 1267.85 1032.95 1256.4 1031.05C1254.52 1030.74 1252.66 1030.32 1250.79 1029.95V1029.54Z" fill="black"/>
<path d="M1019.07 1012.38C999.33 1018.62 980.13 1026.38 960.17 1031.83C979.35 1024 998.43 1015.78 1019.07 1012.38Z" fill="black"/>
<path d="M137.739 1031.45C119.628 1026.95 101.197 1023.85 82.6094 1022.18C101.529 1022 120.239 1023.07 137.739 1031.45Z" fill="black"/>
<path d="M416.12 1014C415.229 1014.26 414.324 1014.47 413.41 1014.62C409.41 1015.06 405.41 1015.21 401.53 1015.89C396.3 1016.81 391.15 1018.12 385.97 1019.26L384.18 1019.63C387.92 1014.63 407.25 1010.88 415.98 1013.43L416.12 1014Z" fill="black"/>
<path d="M1039.88 1022.59C1044.26 1020.41 1049.01 1019.06 1053.88 1018.59C1056.78 1018.4 1059.69 1018.39 1062.59 1018.54C1063.42 1018.67 1064.23 1018.9 1064.99 1019.24C1065.03 1019.47 1065.02 1019.7 1064.96 1019.93C1064.9 1020.15 1064.78 1020.36 1064.63 1020.53C1064.47 1020.71 1064.28 1020.84 1064.07 1020.93C1063.85 1021.02 1063.62 1021.06 1063.39 1021.05C1062.23 1021.21 1061.07 1021.27 1059.9 1021.23C1053.75 1020.91 1047.59 1021.33 1041.54 1022.48C1040.99 1022.55 1040.44 1022.58 1039.88 1022.59Z" fill="black"/>
</g>
<rect width="1440" height="970" fill="black" fill-opacity="0.4"/>
<path d="M1440 1008.03C1440 1008.03 1402.92 1024.89 1368.89 1026.07C1334.35 1027.24 1304.89 1026.07 1262.73 1020.19C1205.33 1012.35 1094.6 980.586 1035.68 997.838C976.762 1015.09 974.222 1015.87 944.254 1026.85C910.73 1039.4 842.667 1064.49 758.349 1063.32C668.444 1062.14 505.397 998.23 438.349 1001.37C431.238 1001.76 404.825 1004.5 385.016 1009.21C365.714 1013.91 337.27 1024.11 298.667 1027.64C282.413 1029.21 256.508 1031.95 226.54 1031.17C218.921 1030.77 194.54 1029.6 165.587 1024.89C136.635 1020.19 109.714 1012.74 85.3333 1010.38C33.0159 1006.07 0 1012.35 0 1012.35V970H1440V1008.03ZM1324.7 1014.31C1321.14 1010.38 1314.54 1012.74 1302.86 1012.74C1291.17 1012.74 1271.87 1008.03 1273.4 1008.42C1274.92 1008.82 1289.14 1014.31 1303.87 1015.87C1319.11 1017.83 1327.75 1018.23 1324.7 1014.31ZM1231.24 1003.72C1231.24 1003.72 1219.05 1002.94 1202.79 1000.19C1186.54 997.054 1150.48 989.212 1126.1 986.468C1084.44 982.155 1045.84 986.468 1049.4 986.86C1053.46 987.252 1098.16 984.507 1138.79 991.173C1155.56 993.917 1186.03 999.799 1201.78 1001.76C1218.54 1004.11 1231.24 1003.72 1231.24 1003.72ZM940.698 1003.33C949.333 1000.58 873.143 1021.76 846.73 1027.24C836.064 1029.6 815.238 1033.52 795.937 1035.09C776.127 1036.65 750.73 1036.65 751.238 1037.05C751.238 1037.83 780.698 1040.18 808.127 1037.05C835.556 1033.91 834.54 1032.73 846.73 1030.77C866.032 1027.64 932.064 1006.07 940.698 1003.33ZM1011.3 997.054C1012.32 997.054 1007.24 995.486 986.921 1001.37C966.603 1007.25 952.889 1015.09 951.873 1015.87C950.857 1016.27 969.651 1008.82 985.397 1004.11C1000.63 999.406 1010.79 997.054 1011.3 997.054ZM1437.46 993.525C1436.95 993.917 1427.81 997.838 1413.08 1003.33C1398.35 1008.82 1378.03 1014.31 1379.05 1013.91C1380.06 1013.91 1396.83 1011.56 1416.63 1004.11C1436.44 996.662 1437.97 993.133 1437.46 993.525ZM158.984 1015.48C159.492 1014.7 149.333 1014.7 136.127 1010.78C122.921 1006.86 108.698 1004.5 96.5079 1002.94C76.1905 999.799 37.0794 1003.33 39.1111 1003.72C40.6349 1004.11 80.7619 1002.54 102.603 1006.46C113.778 1008.42 114.794 1008.42 131.556 1012.74C148.317 1017.05 158.476 1016.66 158.984 1015.48ZM370.794 1006.07C372.825 1005.68 388.571 999.799 413.46 995.878C438.349 991.565 458.667 993.917 458.667 992.741C458.667 991.565 453.587 989.212 427.175 991.565C400.762 993.917 368.762 1006.46 370.794 1006.07ZM363.683 996.27C364.698 996.662 380.952 991.173 392.635 989.604C404.317 988.428 402.286 987.644 402.286 987.252C402.286 986.86 396.698 986.468 388.571 988.036C379.937 989.996 362.667 995.878 363.683 996.27ZM475.429 987.252C475.937 988.036 493.206 990.388 503.873 994.309C514.54 998.23 513.016 996.662 513.524 996.27C514.032 995.878 509.46 993.133 501.333 991.173C493.206 988.82 474.921 986.468 475.429 987.252ZM332.19 1013.52C331.683 1014.7 333.714 1015.48 341.841 1012.74C349.968 1009.99 355.048 1007.64 353.016 1008.03C350.984 1008.42 348.444 1009.6 340.317 1011.17C331.683 1012.74 332.698 1012.35 332.19 1013.52ZM175.238 1018.62C174.222 1018.62 185.905 1021.76 192 1022.15C198.095 1022.54 202.159 1022.54 202.159 1021.36C202.159 1020.19 201.651 1019.4 194.032 1019.79C185.905 1020.19 176.254 1018.62 175.238 1018.62ZM773.079 1052.73C772.571 1053.12 760.889 1051.55 734.984 1051.55C709.587 1051.55 665.905 1042.14 647.619 1037.83C629.333 1033.52 698.413 1053.12 731.429 1053.91C764.444 1054.69 773.587 1052.34 773.079 1052.73Z" fill="black" fill-opacity="0.4"/>
<path d="M1369.4 1040.58C1368.89 1040.18 1346.03 1041.75 1332.83 1040.58C1295.75 1037.83 1246.48 1028.03 1248.51 1029.2C1250.54 1030.38 1318.1 1041.36 1334.86 1042.14C1359.75 1043.71 1369.9 1040.58 1369.4 1040.58Z" fill="black" fill-opacity="0.4"/>
<path d="M1155.05 1008.42C1154.03 1008.03 1132.19 1004.5 1106.79 1003.72C1081.4 1002.94 1042.28 1006.07 1044.32 1005.68C1045.84 1005.29 1074.28 998.623 1111.87 1000.98C1149.46 1003.33 1156.06 1008.82 1155.05 1008.42Z" fill="black" fill-opacity="0.4"/>
<path d="M1038.73 1022.54C1038.22 1022.15 1048.89 1018.62 1054.98 1018.23C1061.08 1017.84 1065.14 1018.23 1065.14 1019.4C1065.14 1020.58 1064.64 1021.36 1057.02 1020.97C1048.38 1020.58 1039.24 1022.93 1038.73 1022.54Z" fill="black" fill-opacity="0.4"/>
<path d="M1020.95 1011.56C1020.95 1011.17 998.605 1016.27 988.954 1020.19C979.303 1023.72 957.462 1032.34 957.97 1032.34C958.478 1032.73 979.303 1026.07 989.97 1022.15C1000.64 1018.23 1020.95 1011.95 1020.95 1011.56Z" fill="black" fill-opacity="0.4"/>
<path d="M784.762 1074.69C784.254 1074.29 761.397 1075.86 748.191 1074.69C711.111 1071.94 661.842 1062.14 663.873 1063.32C665.905 1064.49 733.461 1075.47 750.223 1076.26C775.111 1077.82 785.27 1075.08 784.762 1074.69Z" fill="black" fill-opacity="0.4"/>
<path d="M212.824 1045.67C212.824 1045.67 218.919 1044.5 227.554 1045.28C236.189 1046.06 257.015 1048.81 269.205 1048.03C290.538 1046.46 306.792 1037.44 304.761 1037.83C302.729 1037.83 282.919 1046.46 261.078 1045.28C251.935 1044.89 235.173 1043.32 227.046 1043.71C218.919 1044.1 212.824 1045.67 212.824 1045.67Z" fill="black" fill-opacity="0.4"/>
<path d="M383.493 1019.4C384.508 1019.79 393.651 1016.27 405.334 1015.09C417.016 1014.31 416 1013.91 416 1013.13C416 1012.74 406.858 1011.56 398.731 1013.13C390.604 1015.09 382.477 1019.01 383.493 1019.4Z" fill="black" fill-opacity="0.4"/>
<path d="M79.2383 1021.76C79.2383 1021.36 101.08 1021.76 113.27 1023.72C125.46 1025.68 138.667 1031.17 138.667 1031.56C138.667 1031.95 124.953 1028.42 112.762 1026.07C101.08 1023.72 79.7462 1022.15 79.2383 1021.76Z" fill="black" fill-opacity="0.4"/>
</g>
<defs>
<clipPath id="clip0_1027_5956">
<rect width="1440" height="1080" fill="white"/>
</clipPath>
<clipPath id="clip1_1027_5956">
<rect width="1440" height="86.51" fill="white" transform="translate(0 993)"/>
</clipPath>
</defs>
</svg>
